<?xml version="1.0" encoding="utf-8"?>
<!-- Generator: Adobe Illustrator 25.4.1, SVG Export Plug-In . SVG Version: 6.00 Build 0)  -->
<svg version="1.1" id="Layer_1" xmlns="http://www.w3.org/2000/svg" xmlns:xlink="http://www.w3.org/1999/xlink" x="0px" y="0px"
	 viewBox="0 0 26 26" style="enable-background:new 0 0 26 26;" xml:space="preserve">
<style type="text/css">
	.st0{fill:none;stroke:#FCB245;stroke-width:1.2;stroke-linecap:round;stroke-linejoin:round;}
	.st1{fill:none;stroke:#FCB245;stroke-width:1.2;}
</style>
<path class="st0" d="M13,25v-9.2h-2.5c-0.1,0-0.3-0.1-0.4-0.1c-0.1-0.1-0.1-0.2-0.1-0.4v-3c0-0.1,0.1-0.3,0.1-0.4
	c0.1-0.1,0.2-0.1,0.4-0.1H13v-1.1c0-1.5,0.6-3,1.7-4c1.1-1.1,2.5-1.7,4-1.7h1.8c0.1,0,0.3,0.1,0.4,0.1C20.9,5.2,21,5.4,21,5.5v3
	c0,0.1-0.1,0.3-0.1,0.4C20.8,8.9,20.6,9,20.5,9h-1.8c-0.2,0-0.4,0-0.6,0.1c-0.2,0.1-0.4,0.2-0.5,0.4c-0.2,0.2-0.3,0.3-0.4,0.5
	C17,10.2,17,10.5,17,10.7v1.1h2.9c0.1,0,0.1,0,0.2,0c0.1,0,0.1,0.1,0.2,0.1c0,0.1,0.1,0.1,0.1,0.2c0,0.1,0,0.1,0,0.2l-0.4,3
	c0,0.1-0.1,0.2-0.2,0.3c-0.1,0.1-0.2,0.1-0.3,0.1H17V25"/>
<path class="st1" d="M17,25h5c1.7,0,3-1.3,3-3V4c0-1.7-1.3-3-3-3H4C2.3,1,1,2.3,1,4v18c0,1.7,1.3,3,3,3h9"/>
</svg>
