<?xml version="1.0" encoding="utf-8"?>
<!-- Generator: Adobe Illustrator 25.4.1, SVG Export Plug-In . SVG Version: 6.00 Build 0)  -->
<svg version="1.1" id="Layer_1" xmlns="http://www.w3.org/2000/svg" xmlns:xlink="http://www.w3.org/1999/xlink" x="0px" y="0px"
	 viewBox="0 0 612 792" style="enable-background:new 0 0 612 792;" xml:space="preserve">
<style type="text/css">
	.st0{fill:#851640;stroke:#FCB245;stroke-width:7;stroke-linecap:round;stroke-linejoin:round;stroke-miterlimit:10;}
	.st1{fill:#851640;}
</style>
<g>
	<g>
		<path class="st0" d="M373.9,205.5h5.8v10.2h-8.1c-2.9,0-5.3-1-7.3-3c-2-2-3-4.5-3-7.3c0-2.9,1-5.3,3-7.3c2-2,4.5-3,7.3-3h8v5.7h-8
			c-1.3,0-2.4,0.4-3.3,1.3c-0.9,0.9-1.3,2-1.3,3.3c0,1.3,0.5,2.4,1.4,3.3c0.9,0.9,2,1.3,3.3,1.3h2.4V205.5z"/>
		<path class="st0" d="M395.5,194.9l7.9,20.7h-6.6l-0.8-2h-8l-0.8,2h-6.9l8.2-20.7H395.5z M394,208.2l-2-5.2l-2,5.2H394z"/>
		<path class="st0" d="M415.4,209.9l5.9-14.9h6.9l7.9,20.7h-6.6l-0.8-2h-8l-0.8,2h-15.9v-20.7h5.8v14.9H415.4z M426.7,208.2l-2-5.2
			l-2,5.2H426.7z"/>
		<path class="st0" d="M456.9,195.1l-6.4,10.2l6.4,10.2l0.1,0.1h-7.3l-2.8-4.5l-2.8,4.5h-7.3l0.1-0.1l6.4-10.2l-6.4-10.2l-0.1-0.1
			h7.3l2.8,4.5l2.8-4.5h7.3L456.9,195.1z"/>
		<path class="st0" d="M472.9,194.9h6.7l-7.6,12.7l-0.5,0.8v7.2h-5.8v-7.2l-0.5-0.8l-7.6-12.7h6.7l4.2,7.1L472.9,194.9z"/>
	</g>
	<g>
		<path class="st1" d="M373.9,205.5h5.8v10.2h-8.1c-2.9,0-5.3-1-7.3-3c-2-2-3-4.5-3-7.3c0-2.9,1-5.3,3-7.3c2-2,4.5-3,7.3-3h8v5.7h-8
			c-1.3,0-2.4,0.4-3.3,1.3c-0.9,0.9-1.3,2-1.3,3.3c0,1.3,0.5,2.4,1.4,3.3c0.9,0.9,2,1.3,3.3,1.3h2.4V205.5z"/>
		<path class="st1" d="M395.5,194.9l7.9,20.7h-6.6l-0.8-2h-8l-0.8,2h-6.9l8.2-20.7H395.5z M394,208.2l-2-5.2l-2,5.2H394z"/>
		<path class="st1" d="M415.4,209.9l5.9-14.9h6.9l7.9,20.7h-6.6l-0.8-2h-8l-0.8,2h-15.9v-20.7h5.8v14.9H415.4z M426.7,208.2l-2-5.2
			l-2,5.2H426.7z"/>
		<path class="st1" d="M456.9,195.1l-6.4,10.2l6.4,10.2l0.1,0.1h-7.3l-2.8-4.5l-2.8,4.5h-7.3l0.1-0.1l6.4-10.2l-6.4-10.2l-0.1-0.1
			h7.3l2.8,4.5l2.8-4.5h7.3L456.9,195.1z"/>
		<path class="st1" d="M472.9,194.9h6.7l-7.6,12.7l-0.5,0.8v7.2h-5.8v-7.2l-0.5-0.8l-7.6-12.7h6.7l4.2,7.1L472.9,194.9z"/>
	</g>
</g>
<g>
	<g>
		<path class="st0" d="M394.4,224.6v5.7h-5.3v15h-5.8v-15H378v-5.7H394.4z"/>
		<path class="st0" d="M406.2,224.6c2.9,0,5.3,1,7.3,3c2,2,3,4.5,3,7.3c0,2.9-1,5.3-3,7.3c-2,2-4.5,3-7.3,3h-1.6c-2.9,0-5.3-1-7.3-3
			c-2-2-3-4.5-3-7.3c0-2.9,1-5.3,3-7.3c2-2,4.5-3,7.3-3H406.2z M406.2,239.5c1.3,0,2.4-0.4,3.3-1.3c0.9-0.9,1.4-2,1.4-3.3
			c0-1.3-0.4-2.4-1.3-3.3c-0.9-0.9-2-1.3-3.3-1.3h-1.6c-1.3,0-2.4,0.4-3.3,1.3c-0.9,0.9-1.3,2-1.3,3.3c0,1.3,0.5,2.4,1.4,3.3
			c0.9,0.9,2,1.3,3.3,1.3H406.2z"/>
		<path class="st0" d="M429.1,224.5h5.8v12c0,2.4-0.9,4.5-2.6,6.2c-1.7,1.7-3.8,2.6-6.2,2.6s-4.5-0.9-6.2-2.6
			c-1.7-1.7-2.6-3.8-2.6-6.2v-12h5.8v12c0,0.8,0.3,1.6,0.9,2.2c0.6,0.6,1.3,0.9,2.2,0.9c0.8,0,1.6-0.3,2.2-0.9
			c0.6-0.6,0.9-1.3,0.9-2.2V224.5z"/>
		<path class="st0" d="M450.8,245.3h-6.1l-3.4-3.7v3.7h-5.8v-20.7h9.8c2.1,0,3.9,0.8,5.4,2.3c1.5,1.5,2.2,3.3,2.2,5.4
			c0,1.5-0.4,3-1.3,4.2c-0.8,1.2-1.9,2.2-3.3,3c0.7,0,1.5,0,2.4,0h10.6l-6.7-7c-0.6-0.7-0.9-1.7-0.9-2.8c0-1.4,0.5-2.6,1.4-3.6
			c1-1,2.1-1.5,3.5-1.5h9v5.7h-7.3c0,0.1,2.3,2.4,6.7,7c0.6,0.9,0.9,1.8,0.9,2.8c0,1.4-0.5,2.6-1.4,3.6c-1,1-2.1,1.5-3.5,1.5H450.8z
			 M444.8,234c0.4,0,0.7-0.1,1-0.4c0.3-0.3,0.4-0.6,0.4-1s-0.1-0.7-0.4-1c-0.3-0.3-0.6-0.4-1-0.4h-3.5v2.8H444.8z"/>
	</g>
	<g>
		<path class="st1" d="M394.4,224.6v5.7h-5.3v15h-5.8v-15H378v-5.7H394.4z"/>
		<path class="st1" d="M406.2,224.6c2.9,0,5.3,1,7.3,3c2,2,3,4.5,3,7.3c0,2.9-1,5.3-3,7.3c-2,2-4.5,3-7.3,3h-1.6c-2.9,0-5.3-1-7.3-3
			c-2-2-3-4.5-3-7.3c0-2.9,1-5.3,3-7.3c2-2,4.5-3,7.3-3H406.2z M406.2,239.5c1.3,0,2.4-0.4,3.3-1.3c0.9-0.9,1.4-2,1.4-3.3
			c0-1.3-0.4-2.4-1.3-3.3c-0.9-0.9-2-1.3-3.3-1.3h-1.6c-1.3,0-2.4,0.4-3.3,1.3c-0.9,0.9-1.3,2-1.3,3.3c0,1.3,0.5,2.4,1.4,3.3
			c0.9,0.9,2,1.3,3.3,1.3H406.2z"/>
		<path class="st1" d="M429.1,224.5h5.8v12c0,2.4-0.9,4.5-2.6,6.2c-1.7,1.7-3.8,2.6-6.2,2.6s-4.5-0.9-6.2-2.6
			c-1.7-1.7-2.6-3.8-2.6-6.2v-12h5.8v12c0,0.8,0.3,1.6,0.9,2.2c0.6,0.6,1.3,0.9,2.2,0.9c0.8,0,1.6-0.3,2.2-0.9
			c0.6-0.6,0.9-1.3,0.9-2.2V224.5z"/>
		<path class="st1" d="M450.8,245.3h-6.1l-3.4-3.7v3.7h-5.8v-20.7h9.8c2.1,0,3.9,0.8,5.4,2.3c1.5,1.5,2.2,3.3,2.2,5.4
			c0,1.5-0.4,3-1.3,4.2c-0.8,1.2-1.9,2.2-3.3,3c0.7,0,1.5,0,2.4,0h10.6l-6.7-7c-0.6-0.7-0.9-1.7-0.9-2.8c0-1.4,0.5-2.6,1.4-3.6
			c1-1,2.1-1.5,3.5-1.5h9v5.7h-7.3c0,0.1,2.3,2.4,6.7,7c0.6,0.9,0.9,1.8,0.9,2.8c0,1.4-0.5,2.6-1.4,3.6c-1,1-2.1,1.5-3.5,1.5H450.8z
			 M444.8,234c0.4,0,0.7-0.1,1-0.4c0.3-0.3,0.4-0.6,0.4-1s-0.1-0.7-0.4-1c-0.3-0.3-0.6-0.4-1-0.4h-3.5v2.8H444.8z"/>
	</g>
</g>
</svg>
