<?xml version="1.0" encoding="utf-8"?>
<!-- Generator: Adobe Illustrator 25.4.1, SVG Export Plug-In . SVG Version: 6.00 Build 0)  -->
<svg version="1.1" id="Layer_1" xmlns="http://www.w3.org/2000/svg" xmlns:xlink="http://www.w3.org/1999/xlink" x="0px" y="0px"
	 viewBox="0 0 148.4 149.9" style="enable-background:new 0 0 148.4 149.9;" xml:space="preserve">
<style type="text/css">
	.st0{fill:#FCB245;}
	.st1{fill:#851640;}
	.st2{fill:#FFF8D0;}
	.st3{fill:#F15E22;}
	.st4{fill:#BF3D26;}
	.st5{fill:#FEE86C;}
	.st6{fill:#FFC643;}
	.st7{fill:#FAA321;}
	.st8{fill:#851640;stroke:#FCB245;stroke-width:7;stroke-linecap:round;stroke-linejoin:round;stroke-miterlimit:10;}
</style>
<path class="st0" d="M74.3,20.1h68.9c4,0,6.5,4.3,4.5,7.8l-34.5,59.7l-34.5,59.7c-2,3.5-7,3.5-9,0L35.2,87.6L0.7,27.9
	c-2-3.5,0.5-7.8,4.5-7.8H74.3z"/>
<polygon class="st1" points="39.8,85 5.4,25.3 74.3,25.3 143.2,25.3 108.7,85 74.3,144.7 "/>
<g>
	<g>
		<path class="st2" d="M57,81.5c0-9.5,7.7-17.3,17.3-17.3c9.5,0,17.3,7.7,17.3,17.3"/>
		<path class="st0" d="M74.3,81.5h17.3c0-9.5-7.7-17.3-17.3-17.3"/>
		<polygon class="st3" points="108.6,94.2 40,94.2 48.4,80.4 100.2,80.4 		"/>
		<polygon class="st4" points="98.1,100.3 50.5,100.3 40,94 108.6,94 		"/>
		<g>
			<g>
				<path class="st1" d="M53.4,87.6c0,1.1-0.9,2-2,2s-2-0.9-2-2s0.9-2,2-2C52.4,85.6,53.4,86.5,53.4,87.6z"/>
				<path class="st1" d="M51.3,85.6c1.1,0,2,0.9,2,2s-0.9,2-2,2V85.6z"/>
			</g>
			<g>
				<path class="st1" d="M62.5,87.6c0,1.1-0.9,2-2,2s-2-0.9-2-2s0.9-2,2-2C61.6,85.6,62.5,86.5,62.5,87.6z"/>
				<path class="st1" d="M60.5,85.6c1.1,0,2,0.9,2,2s-0.9,2-2,2V85.6z"/>
			</g>
			<g>
				<path class="st1" d="M71.7,87.6c0,1.1-0.9,2-2,2s-2-0.9-2-2s0.9-2,2-2S71.7,86.5,71.7,87.6z"/>
				<path class="st1" d="M69.7,85.6c1.1,0,2,0.9,2,2s-0.9,2-2,2V85.6z"/>
			</g>
			<g>
				<path class="st1" d="M80.9,87.6c0,1.1-0.9,2-2,2s-2-0.9-2-2s0.9-2,2-2C80,85.6,80.9,86.5,80.9,87.6z"/>
				<path class="st1" d="M78.8,85.6c1.1,0,2,0.9,2,2s-0.9,2-2,2V85.6z"/>
			</g>
			<g>
				<path class="st1" d="M90,87.6c0,1.1-0.9,2-2,2s-2-0.9-2-2s0.9-2,2-2S90,86.5,90,87.6z"/>
				<path class="st1" d="M88,85.6c1.1,0,2,0.9,2,2s-0.9,2-2,2V85.6z"/>
			</g>
			<g>
				<path class="st1" d="M99.2,87.6c0,1.1-0.9,2-2,2s-2-0.9-2-2s0.9-2,2-2S99.2,86.5,99.2,87.6z"/>
				<path class="st1" d="M97.2,85.6c1.1,0,2,0.9,2,2s-0.9,2-2,2V85.6z"/>
			</g>
		</g>
	</g>
	<g>
		<polygon class="st5" points="84.5,113.3 92,100.3 84.5,100.3 		"/>
		<polygon class="st6" points="77.7,125.3 84.5,113.3 84.5,100.3 77.7,100.3 		"/>
		<polygon class="st5" points="64,100.3 56.6,100.3 64,113.2 		"/>
		<polygon class="st6" points="64,113.2 70.8,125.2 70.8,100.3 64,100.3 		"/>
		<polygon class="st7" points="70.8,125.2 74.3,131.2 77.7,125.3 77.7,100.3 70.8,100.3 		"/>
	</g>
</g>
<g>
	<g>
		<path class="st8" d="M24.8,17.5h5.8v10.2h-8.1c-2.9,0-5.3-1-7.3-3s-3-4.5-3-7.3c0-2.9,1-5.3,3-7.3s4.5-3,7.3-3h8v5.7h-8
			c-1.3,0-2.4,0.4-3.3,1.3c-0.9,0.9-1.3,2-1.3,3.3s0.5,2.4,1.4,3.3c0.9,0.9,2,1.3,3.3,1.3H25v-4.5H24.8z"/>
		<path class="st8" d="M46.4,6.9l7.9,20.7h-6.6l-0.8-2h-8l-0.8,2h-6.9l8.2-20.7H46.4z M44.9,20.2l-2-5.2l-2,5.2H44.9z"/>
		<path class="st8" d="M66.3,21.9L72.2,7h6.9L87,27.7h-6.6l-0.8-2h-8l-0.8,2H54.9V7h5.8v14.9H66.3z M77.7,20.2l-2-5.2l-2,5.2H77.7z"
			/>
		<path class="st8" d="M107.9,7.1l-6.4,10.2l6.4,10.2l0.1,0.1h-7.3l-2.8-4.5l-2.8,4.5h-7.3l0.1-0.1l6.4-10.2L87.9,7.1L87.8,7h7.3
			l2.8,4.5l2.8-4.5h7.3L107.9,7.1z"/>
		<path class="st8" d="M123.9,6.9h6.7L123,19.6l-0.5,0.8v7.2h-5.8v-7.2l-0.5-0.8l-7.6-12.7h6.7l4.2,7.1L123.9,6.9z"/>
	</g>
	<g>
		<path class="st1" d="M24.8,17.5h5.8v10.2h-8.1c-2.9,0-5.3-1-7.3-3s-3-4.5-3-7.3c0-2.9,1-5.3,3-7.3s4.5-3,7.3-3h8v5.7h-8
			c-1.3,0-2.4,0.4-3.3,1.3c-0.9,0.9-1.3,2-1.3,3.3s0.5,2.4,1.4,3.3c0.9,0.9,2,1.3,3.3,1.3H25v-4.5H24.8z"/>
		<path class="st1" d="M46.4,6.9l7.9,20.7h-6.6l-0.8-2h-8l-0.8,2h-6.9l8.2-20.7H46.4z M44.9,20.2l-2-5.2l-2,5.2H44.9z"/>
		<path class="st1" d="M66.3,21.9L72.2,7h6.9L87,27.7h-6.6l-0.8-2h-8l-0.8,2H54.9V7h5.8v14.9H66.3z M77.7,20.2l-2-5.2l-2,5.2H77.7z"
			/>
		<path class="st1" d="M107.9,7.1l-6.4,10.2l6.4,10.2l0.1,0.1h-7.3l-2.8-4.5l-2.8,4.5h-7.3l0.1-0.1l6.4-10.2L87.9,7.1L87.8,7h7.3
			l2.8,4.5l2.8-4.5h7.3L107.9,7.1z"/>
		<path class="st1" d="M123.9,6.9h6.7L123,19.6l-0.5,0.8v7.2h-5.8v-7.2l-0.5-0.8l-7.6-12.7h6.7l4.2,7.1L123.9,6.9z"/>
	</g>
</g>
<g>
	<g>
		<path class="st8" d="M45.3,36.6v5.7H40v15h-5.8v-15h-5.3v-5.7H45.3z"/>
		<path class="st8" d="M57.1,36.6c2.9,0,5.3,1,7.3,3s3,4.5,3,7.3c0,2.9-1,5.3-3,7.3s-4.5,3-7.3,3h-1.6c-2.9,0-5.3-1-7.3-3
			s-3-4.5-3-7.3c0-2.9,1-5.3,3-7.3s4.5-3,7.3-3H57.1z M57.1,51.5c1.3,0,2.4-0.4,3.3-1.3c0.9-0.9,1.4-2,1.4-3.3s-0.4-2.4-1.3-3.3
			c-0.9-0.9-2-1.3-3.3-1.3h-1.6c-1.3,0-2.4,0.4-3.3,1.3c-0.9,0.9-1.3,2-1.3,3.3s0.5,2.4,1.4,3.3c0.9,0.9,2,1.3,3.3,1.3H57.1z"/>
		<path class="st8" d="M80.1,36.5h5.8v12c0,2.4-0.9,4.5-2.6,6.2s-3.8,2.6-6.2,2.6s-4.5-0.9-6.2-2.6c-1.7-1.7-2.6-3.8-2.6-6.2v-12
			h5.8v12c0,0.8,0.3,1.6,0.9,2.2c0.6,0.6,1.3,0.9,2.2,0.9c0.8,0,1.6-0.3,2.2-0.9c0.6-0.6,0.9-1.3,0.9-2.2v-12H80.1z"/>
		<path class="st8" d="M101.8,57.3h-6.1l-3.4-3.7v3.7h-5.8V36.6h9.8c2.1,0,3.9,0.8,5.4,2.3s2.2,3.3,2.2,5.4c0,1.5-0.4,3-1.3,4.2
			c-0.8,1.2-1.9,2.2-3.3,3c0.7,0,1.5,0,2.4,0h10.6l-6.7-7c-0.6-0.7-0.9-1.7-0.9-2.8c0-1.4,0.5-2.6,1.4-3.6c1-1,2.1-1.5,3.5-1.5h9
			v5.7h-7.3c0,0.1,2.3,2.4,6.7,7c0.6,0.9,0.9,1.8,0.9,2.8c0,1.4-0.5,2.6-1.4,3.6c-1,1-2.1,1.5-3.5,1.5h-12.2V57.3z M95.8,46
			c0.4,0,0.7-0.1,1-0.4c0.3-0.3,0.4-0.6,0.4-1s-0.1-0.7-0.4-1s-0.6-0.4-1-0.4h-3.5V46L95.8,46L95.8,46z"/>
	</g>
	<g>
		<path class="st1" d="M45.3,36.6v5.7H40v15h-5.8v-15h-5.3v-5.7H45.3z"/>
		<path class="st1" d="M57.1,36.6c2.9,0,5.3,1,7.3,3s3,4.5,3,7.3c0,2.9-1,5.3-3,7.3s-4.5,3-7.3,3h-1.6c-2.9,0-5.3-1-7.3-3
			s-3-4.5-3-7.3c0-2.9,1-5.3,3-7.3s4.5-3,7.3-3H57.1z M57.1,51.5c1.3,0,2.4-0.4,3.3-1.3c0.9-0.9,1.4-2,1.4-3.3s-0.4-2.4-1.3-3.3
			c-0.9-0.9-2-1.3-3.3-1.3h-1.6c-1.3,0-2.4,0.4-3.3,1.3c-0.9,0.9-1.3,2-1.3,3.3s0.5,2.4,1.4,3.3c0.9,0.9,2,1.3,3.3,1.3H57.1z"/>
		<path class="st1" d="M80.1,36.5h5.8v12c0,2.4-0.9,4.5-2.6,6.2s-3.8,2.6-6.2,2.6s-4.5-0.9-6.2-2.6c-1.7-1.7-2.6-3.8-2.6-6.2v-12
			h5.8v12c0,0.8,0.3,1.6,0.9,2.2c0.6,0.6,1.3,0.9,2.2,0.9c0.8,0,1.6-0.3,2.2-0.9c0.6-0.6,0.9-1.3,0.9-2.2v-12H80.1z"/>
		<path class="st1" d="M101.8,57.3h-6.1l-3.4-3.7v3.7h-5.8V36.6h9.8c2.1,0,3.9,0.8,5.4,2.3s2.2,3.3,2.2,5.4c0,1.5-0.4,3-1.3,4.2
			c-0.8,1.2-1.9,2.2-3.3,3c0.7,0,1.5,0,2.4,0h10.6l-6.7-7c-0.6-0.7-0.9-1.7-0.9-2.8c0-1.4,0.5-2.6,1.4-3.6c1-1,2.1-1.5,3.5-1.5h9
			v5.7h-7.3c0,0.1,2.3,2.4,6.7,7c0.6,0.9,0.9,1.8,0.9,2.8c0,1.4-0.5,2.6-1.4,3.6c-1,1-2.1,1.5-3.5,1.5h-12.2V57.3z M95.8,46
			c0.4,0,0.7-0.1,1-0.4c0.3-0.3,0.4-0.6,0.4-1s-0.1-0.7-0.4-1s-0.6-0.4-1-0.4h-3.5V46L95.8,46L95.8,46z"/>
	</g>
</g>
</svg>
