<?xml version="1.0" encoding="utf-8"?>
<!-- Generator: Adobe Illustrator 25.4.1, SVG Export Plug-In . SVG Version: 6.00 Build 0)  -->
<svg version="1.1" id="Layer_1" xmlns="http://www.w3.org/2000/svg" xmlns:xlink="http://www.w3.org/1999/xlink" x="0px" y="0px"
	 viewBox="0 0 127.3 61.8" style="enable-background:new 0 0 127.3 61.8;" xml:space="preserve">
<style type="text/css">
	.st0{fill:#851640;stroke:#FCB245;stroke-width:7;stroke-linecap:round;stroke-linejoin:round;stroke-miterlimit:10;}
	.st1{fill:#851640;}
</style>
<g>
	<g>
		<path class="st0" d="M17.2,17.5H23v10.2h-8.1c-2.9,0-5.3-1-7.3-3s-3-4.5-3-7.3c0-2.9,1-5.3,3-7.3s4.5-3,7.3-3h8v5.7h-8
			c-1.3,0-2.4,0.4-3.3,1.3c-0.9,0.9-1.3,2-1.3,3.3s0.5,2.4,1.4,3.3c0.9,0.9,2,1.3,3.3,1.3h2.4v-4.5H17.2z"/>
		<path class="st0" d="M38.8,6.9l7.9,20.7h-6.6l-0.8-2h-8l-0.8,2h-6.9l8.2-20.7H38.8z M37.3,20.2l-2-5.2l-2,5.2H37.3z"/>
		<path class="st0" d="M58.7,21.9L64.6,7h6.9l7.9,20.7h-6.6l-0.8-2h-8l-0.8,2H47.3V7h5.8v14.9H58.7z M70,20.2L68,15l-2,5.2H70z"/>
		<path class="st0" d="M100.2,7.1l-6.4,10.2l6.4,10.2l0.1,0.1H93l-2.8-4.5l-2.8,4.5h-7.3l0.1-0.1l6.4-10.2L80.2,7.1L80.1,7h7.3
			l2.8,4.5L93,7h7.3L100.2,7.1z"/>
		<path class="st0" d="M116.2,6.9h6.7l-7.6,12.7l-0.5,0.8v7.2H109v-7.2l-0.5-0.8l-7.6-12.7h6.7l4.2,7.1L116.2,6.9z"/>
	</g>
	<g>
		<path class="st1" d="M17.2,17.5H23v10.2h-8.1c-2.9,0-5.3-1-7.3-3s-3-4.5-3-7.3c0-2.9,1-5.3,3-7.3s4.5-3,7.3-3h8v5.7h-8
			c-1.3,0-2.4,0.4-3.3,1.3c-0.9,0.9-1.3,2-1.3,3.3s0.5,2.4,1.4,3.3c0.9,0.9,2,1.3,3.3,1.3h2.4v-4.5H17.2z"/>
		<path class="st1" d="M38.8,6.9l7.9,20.7h-6.6l-0.8-2h-8l-0.8,2h-6.9l8.2-20.7H38.8z M37.3,20.2l-2-5.2l-2,5.2H37.3z"/>
		<path class="st1" d="M58.7,21.9L64.6,7h6.9l7.9,20.7h-6.6l-0.8-2h-8l-0.8,2H47.3V7h5.8v14.9H58.7z M70,20.2L68,15l-2,5.2H70z"/>
		<path class="st1" d="M100.2,7.1l-6.4,10.2l6.4,10.2l0.1,0.1H93l-2.8-4.5l-2.8,4.5h-7.3l0.1-0.1l6.4-10.2L80.2,7.1L80.1,7h7.3
			l2.8,4.5L93,7h7.3L100.2,7.1z"/>
		<path class="st1" d="M116.2,6.9h6.7l-7.6,12.7l-0.5,0.8v7.2H109v-7.2l-0.5-0.8l-7.6-12.7h6.7l4.2,7.1L116.2,6.9z"/>
	</g>
</g>
<g>
	<g>
		<path class="st0" d="M37.7,36.6v5.7h-5.3v15h-5.8v-15h-5.3v-5.7H37.7z"/>
		<path class="st0" d="M49.5,36.6c2.9,0,5.3,1,7.3,3s3,4.5,3,7.3c0,2.9-1,5.3-3,7.3s-4.5,3-7.3,3h-1.6c-2.9,0-5.3-1-7.3-3
			s-3-4.5-3-7.3c0-2.9,1-5.3,3-7.3s4.5-3,7.3-3H49.5z M49.5,51.5c1.3,0,2.4-0.4,3.3-1.3c0.9-0.9,1.4-2,1.4-3.3s-0.4-2.4-1.3-3.3
			c-0.9-0.9-2-1.3-3.3-1.3H48c-1.3,0-2.4,0.4-3.3,1.3c-0.9,0.9-1.3,2-1.3,3.3s0.5,2.4,1.4,3.3c0.9,0.9,2,1.3,3.3,1.3H49.5z"/>
		<path class="st0" d="M72.4,36.5h5.8v12c0,2.4-0.9,4.5-2.6,6.2s-3.8,2.6-6.2,2.6s-4.5-0.9-6.2-2.6c-1.7-1.7-2.6-3.8-2.6-6.2v-12
			h5.8v12c0,0.8,0.3,1.6,0.9,2.2c0.6,0.6,1.3,0.9,2.2,0.9c0.8,0,1.6-0.3,2.2-0.9c0.6-0.6,0.9-1.3,0.9-2.2v-12H72.4z"/>
		<path class="st0" d="M94.1,57.3H88l-3.4-3.7v3.7h-5.8V36.6h9.8c2.1,0,3.9,0.8,5.4,2.3s2.2,3.3,2.2,5.4c0,1.5-0.4,3-1.3,4.2
			c-0.8,1.2-1.9,2.2-3.3,3c0.7,0,1.5,0,2.4,0h10.6l-6.7-7c-0.6-0.7-0.9-1.7-0.9-2.8c0-1.4,0.5-2.6,1.4-3.6c1-1,2.1-1.5,3.5-1.5h9
			v5.7h-7.3c0,0.1,2.3,2.4,6.7,7c0.6,0.9,0.9,1.8,0.9,2.8c0,1.4-0.5,2.6-1.4,3.6c-1,1-2.1,1.5-3.5,1.5H94.1V57.3z M88.1,46
			c0.4,0,0.7-0.1,1-0.4c0.3-0.3,0.4-0.6,0.4-1s-0.1-0.7-0.4-1s-0.6-0.4-1-0.4h-3.5V46L88.1,46L88.1,46z"/>
	</g>
	<g>
		<path class="st1" d="M37.7,36.6v5.7h-5.3v15h-5.8v-15h-5.3v-5.7H37.7z"/>
		<path class="st1" d="M49.5,36.6c2.9,0,5.3,1,7.3,3s3,4.5,3,7.3c0,2.9-1,5.3-3,7.3s-4.5,3-7.3,3h-1.6c-2.9,0-5.3-1-7.3-3
			s-3-4.5-3-7.3c0-2.9,1-5.3,3-7.3s4.5-3,7.3-3H49.5z M49.5,51.5c1.3,0,2.4-0.4,3.3-1.3c0.9-0.9,1.4-2,1.4-3.3s-0.4-2.4-1.3-3.3
			c-0.9-0.9-2-1.3-3.3-1.3H48c-1.3,0-2.4,0.4-3.3,1.3c-0.9,0.9-1.3,2-1.3,3.3s0.5,2.4,1.4,3.3c0.9,0.9,2,1.3,3.3,1.3H49.5z"/>
		<path class="st1" d="M72.4,36.5h5.8v12c0,2.4-0.9,4.5-2.6,6.2s-3.8,2.6-6.2,2.6s-4.5-0.9-6.2-2.6c-1.7-1.7-2.6-3.8-2.6-6.2v-12
			h5.8v12c0,0.8,0.3,1.6,0.9,2.2c0.6,0.6,1.3,0.9,2.2,0.9c0.8,0,1.6-0.3,2.2-0.9c0.6-0.6,0.9-1.3,0.9-2.2v-12H72.4z"/>
		<path class="st1" d="M94.1,57.3H88l-3.4-3.7v3.7h-5.8V36.6h9.8c2.1,0,3.9,0.8,5.4,2.3s2.2,3.3,2.2,5.4c0,1.5-0.4,3-1.3,4.2
			c-0.8,1.2-1.9,2.2-3.3,3c0.7,0,1.5,0,2.4,0h10.6l-6.7-7c-0.6-0.7-0.9-1.7-0.9-2.8c0-1.4,0.5-2.6,1.4-3.6c1-1,2.1-1.5,3.5-1.5h9
			v5.7h-7.3c0,0.1,2.3,2.4,6.7,7c0.6,0.9,0.9,1.8,0.9,2.8c0,1.4-0.5,2.6-1.4,3.6c-1,1-2.1,1.5-3.5,1.5H94.1V57.3z M88.1,46
			c0.4,0,0.7-0.1,1-0.4c0.3-0.3,0.4-0.6,0.4-1s-0.1-0.7-0.4-1s-0.6-0.4-1-0.4h-3.5V46L88.1,46L88.1,46z"/>
	</g>
</g>
</svg>
