<?xml version="1.0" encoding="utf-8"?>
<!-- Generator: Adobe Illustrator 25.4.1, SVG Export Plug-In . SVG Version: 6.00 Build 0)  -->
<svg version="1.1" id="Layer_1" xmlns="http://www.w3.org/2000/svg" xmlns:xlink="http://www.w3.org/1999/xlink" x="0px" y="0px"
	 viewBox="0 0 612 792" style="enable-background:new 0 0 612 792;" xml:space="preserve">
<style type="text/css">
	.st0{fill:#FCB245;}
	.st1{fill:#851640;}
	.st2{fill:#FFF8D0;}
	.st3{fill:#F15E22;}
	.st4{fill:#BF3D26;}
	.st5{fill:#FEE86C;}
	.st6{fill:#FFC643;}
	.st7{fill:#FAA321;}
	.st8{fill:#851640;stroke:#FCB245;stroke-width:7;stroke-linecap:round;stroke-linejoin:round;stroke-miterlimit:10;}
</style>
<path class="st0" d="M250.1,208.1H319c4,0,6.5,4.3,4.5,7.8l-34.5,59.7l-34.5,59.7c-2,3.5-7,3.5-9,0l-34.5-59.7l-34.5-59.7
	c-2-3.5,0.5-7.8,4.5-7.8H250.1z"/>
<polygon class="st1" points="215.6,273 181.2,213.3 250.1,213.3 319,213.3 284.5,273 250.1,332.7 "/>
<g>
	<g>
		<path class="st2" d="M232.8,269.5c0-9.5,7.7-17.3,17.3-17.3c9.5,0,17.3,7.7,17.3,17.3"/>
		<path class="st0" d="M250.1,269.5h17.3c0-9.5-7.7-17.3-17.3-17.3"/>
		<polygon class="st3" points="284.4,282.2 215.8,282.2 224.2,268.4 276,268.4 		"/>
		<polygon class="st4" points="273.9,288.3 226.3,288.3 215.8,282 284.4,282 		"/>
		<g>
			<g>
				<path class="st1" d="M229.2,275.6c0,1.1-0.9,2-2,2c-1.1,0-2-0.9-2-2c0-1.1,0.9-2,2-2C228.2,273.6,229.2,274.5,229.2,275.6z"/>
				<path class="st1" d="M227.1,273.6c1.1,0,2,0.9,2,2c0,1.1-0.9,2-2,2V273.6z"/>
			</g>
			<g>
				<path class="st1" d="M238.3,275.6c0,1.1-0.9,2-2,2c-1.1,0-2-0.9-2-2c0-1.1,0.9-2,2-2C237.4,273.6,238.3,274.5,238.3,275.6z"/>
				<path class="st1" d="M236.3,273.6c1.1,0,2,0.9,2,2c0,1.1-0.9,2-2,2V273.6z"/>
			</g>
			<g>
				<path class="st1" d="M247.5,275.6c0,1.1-0.9,2-2,2c-1.1,0-2-0.9-2-2c0-1.1,0.9-2,2-2C246.6,273.6,247.5,274.5,247.5,275.6z"/>
				<path class="st1" d="M245.5,273.6c1.1,0,2,0.9,2,2c0,1.1-0.9,2-2,2V273.6z"/>
			</g>
			<g>
				<path class="st1" d="M256.7,275.6c0,1.1-0.9,2-2,2c-1.1,0-2-0.9-2-2c0-1.1,0.9-2,2-2C255.8,273.6,256.7,274.5,256.7,275.6z"/>
				<path class="st1" d="M254.6,273.6c1.1,0,2,0.9,2,2c0,1.1-0.9,2-2,2V273.6z"/>
			</g>
			<g>
				<path class="st1" d="M265.8,275.6c0,1.1-0.9,2-2,2s-2-0.9-2-2c0-1.1,0.9-2,2-2S265.8,274.5,265.8,275.6z"/>
				<path class="st1" d="M263.8,273.6c1.1,0,2,0.9,2,2c0,1.1-0.9,2-2,2V273.6z"/>
			</g>
			<g>
				<path class="st1" d="M275,275.6c0,1.1-0.9,2-2,2c-1.1,0-2-0.9-2-2c0-1.1,0.9-2,2-2C274.1,273.6,275,274.5,275,275.6z"/>
				<path class="st1" d="M273,273.6c1.1,0,2,0.9,2,2c0,1.1-0.9,2-2,2V273.6z"/>
			</g>
		</g>
	</g>
	<g>
		<polygon class="st5" points="260.3,301.3 267.8,288.3 260.3,288.3 		"/>
		<polygon class="st6" points="253.5,313.3 260.3,301.3 260.3,288.3 253.5,288.3 		"/>
		<polygon class="st5" points="239.8,288.3 232.4,288.3 239.8,301.2 		"/>
		<polygon class="st6" points="239.8,301.2 246.6,313.2 246.6,288.3 239.8,288.3 		"/>
		<polygon class="st7" points="246.6,313.2 250.1,319.2 253.5,313.3 253.5,288.3 246.6,288.3 		"/>
	</g>
</g>
<g>
	<g>
		<path class="st8" d="M200.6,205.5h5.8v10.2h-8.1c-2.9,0-5.3-1-7.3-3c-2-2-3-4.5-3-7.3c0-2.9,1-5.3,3-7.3c2-2,4.5-3,7.3-3h8v5.7h-8
			c-1.3,0-2.4,0.4-3.3,1.3c-0.9,0.9-1.3,2-1.3,3.3c0,1.3,0.5,2.4,1.4,3.3c0.9,0.9,2,1.3,3.3,1.3h2.4V205.5z"/>
		<path class="st8" d="M222.2,194.9l7.9,20.7h-6.6l-0.8-2h-8l-0.8,2h-6.9l8.2-20.7H222.2z M220.7,208.2l-2-5.2l-2,5.2H220.7z"/>
		<path class="st8" d="M242.1,209.9l5.9-14.9h6.9l7.9,20.7h-6.6l-0.8-2h-8l-0.8,2h-15.9v-20.7h5.8v14.9H242.1z M253.5,208.2l-2-5.2
			l-2,5.2H253.5z"/>
		<path class="st8" d="M283.7,195.1l-6.4,10.2l6.4,10.2l0.1,0.1h-7.3l-2.8-4.5l-2.8,4.5h-7.3l0.1-0.1l6.4-10.2l-6.4-10.2l-0.1-0.1
			h7.3l2.8,4.5l2.8-4.5h7.3L283.7,195.1z"/>
		<path class="st8" d="M299.7,194.9h6.7l-7.6,12.7l-0.5,0.8v7.2h-5.8v-7.2l-0.5-0.8l-7.6-12.7h6.7l4.2,7.1L299.7,194.9z"/>
	</g>
	<g>
		<path class="st1" d="M200.6,205.5h5.8v10.2h-8.1c-2.9,0-5.3-1-7.3-3c-2-2-3-4.5-3-7.3c0-2.9,1-5.3,3-7.3c2-2,4.5-3,7.3-3h8v5.7h-8
			c-1.3,0-2.4,0.4-3.3,1.3c-0.9,0.9-1.3,2-1.3,3.3c0,1.3,0.5,2.4,1.4,3.3c0.9,0.9,2,1.3,3.3,1.3h2.4V205.5z"/>
		<path class="st1" d="M222.2,194.9l7.9,20.7h-6.6l-0.8-2h-8l-0.8,2h-6.9l8.2-20.7H222.2z M220.7,208.2l-2-5.2l-2,5.2H220.7z"/>
		<path class="st1" d="M242.1,209.9l5.9-14.9h6.9l7.9,20.7h-6.6l-0.8-2h-8l-0.8,2h-15.9v-20.7h5.8v14.9H242.1z M253.5,208.2l-2-5.2
			l-2,5.2H253.5z"/>
		<path class="st1" d="M283.7,195.1l-6.4,10.2l6.4,10.2l0.1,0.1h-7.3l-2.8-4.5l-2.8,4.5h-7.3l0.1-0.1l6.4-10.2l-6.4-10.2l-0.1-0.1
			h7.3l2.8,4.5l2.8-4.5h7.3L283.7,195.1z"/>
		<path class="st1" d="M299.7,194.9h6.7l-7.6,12.7l-0.5,0.8v7.2h-5.8v-7.2l-0.5-0.8l-7.6-12.7h6.7l4.2,7.1L299.7,194.9z"/>
	</g>
</g>
<g>
	<g>
		<path class="st8" d="M221.1,224.6v5.7h-5.3v15h-5.8v-15h-5.3v-5.7H221.1z"/>
		<path class="st8" d="M232.9,224.6c2.9,0,5.3,1,7.3,3c2,2,3,4.5,3,7.3c0,2.9-1,5.3-3,7.3c-2,2-4.5,3-7.3,3h-1.6c-2.9,0-5.3-1-7.3-3
			c-2-2-3-4.5-3-7.3c0-2.9,1-5.3,3-7.3c2-2,4.5-3,7.3-3H232.9z M232.9,239.5c1.3,0,2.4-0.4,3.3-1.3c0.9-0.9,1.4-2,1.4-3.3
			c0-1.3-0.4-2.4-1.3-3.3c-0.9-0.9-2-1.3-3.3-1.3h-1.6c-1.3,0-2.4,0.4-3.3,1.3c-0.9,0.9-1.3,2-1.3,3.3c0,1.3,0.5,2.4,1.4,3.3
			c0.9,0.9,2,1.3,3.3,1.3H232.9z"/>
		<path class="st8" d="M255.9,224.5h5.8v12c0,2.4-0.9,4.5-2.6,6.2c-1.7,1.7-3.8,2.6-6.2,2.6c-2.4,0-4.5-0.9-6.2-2.6
			c-1.7-1.7-2.6-3.8-2.6-6.2v-12h5.8v12c0,0.8,0.3,1.6,0.9,2.2c0.6,0.6,1.3,0.9,2.2,0.9c0.8,0,1.6-0.3,2.2-0.9
			c0.6-0.6,0.9-1.3,0.9-2.2V224.5z"/>
		<path class="st8" d="M277.6,245.3h-6.1l-3.4-3.7v3.7h-5.8v-20.7h9.8c2.1,0,3.9,0.8,5.4,2.3c1.5,1.5,2.2,3.3,2.2,5.4
			c0,1.5-0.4,3-1.3,4.2c-0.8,1.2-1.9,2.2-3.3,3c0.7,0,1.5,0,2.4,0h10.6l-6.7-7c-0.6-0.7-0.9-1.7-0.9-2.8c0-1.4,0.5-2.6,1.4-3.6
			c1-1,2.1-1.5,3.5-1.5h9v5.7h-7.3c0,0.1,2.3,2.4,6.7,7c0.6,0.9,0.9,1.8,0.9,2.8c0,1.4-0.5,2.6-1.4,3.6c-1,1-2.1,1.5-3.5,1.5H277.6z
			 M271.6,234c0.4,0,0.7-0.1,1-0.4c0.3-0.3,0.4-0.6,0.4-1s-0.1-0.7-0.4-1c-0.3-0.3-0.6-0.4-1-0.4h-3.5v2.8H271.6z"/>
	</g>
	<g>
		<path class="st1" d="M221.1,224.6v5.7h-5.3v15h-5.8v-15h-5.3v-5.7H221.1z"/>
		<path class="st1" d="M232.9,224.6c2.9,0,5.3,1,7.3,3c2,2,3,4.5,3,7.3c0,2.9-1,5.3-3,7.3c-2,2-4.5,3-7.3,3h-1.6c-2.9,0-5.3-1-7.3-3
			c-2-2-3-4.5-3-7.3c0-2.9,1-5.3,3-7.3c2-2,4.5-3,7.3-3H232.9z M232.9,239.5c1.3,0,2.4-0.4,3.3-1.3c0.9-0.9,1.4-2,1.4-3.3
			c0-1.3-0.4-2.4-1.3-3.3c-0.9-0.9-2-1.3-3.3-1.3h-1.6c-1.3,0-2.4,0.4-3.3,1.3c-0.9,0.9-1.3,2-1.3,3.3c0,1.3,0.5,2.4,1.4,3.3
			c0.9,0.9,2,1.3,3.3,1.3H232.9z"/>
		<path class="st1" d="M255.9,224.5h5.8v12c0,2.4-0.9,4.5-2.6,6.2c-1.7,1.7-3.8,2.6-6.2,2.6c-2.4,0-4.5-0.9-6.2-2.6
			c-1.7-1.7-2.6-3.8-2.6-6.2v-12h5.8v12c0,0.8,0.3,1.6,0.9,2.2c0.6,0.6,1.3,0.9,2.2,0.9c0.8,0,1.6-0.3,2.2-0.9
			c0.6-0.6,0.9-1.3,0.9-2.2V224.5z"/>
		<path class="st1" d="M277.6,245.3h-6.1l-3.4-3.7v3.7h-5.8v-20.7h9.8c2.1,0,3.9,0.8,5.4,2.3c1.5,1.5,2.2,3.3,2.2,5.4
			c0,1.5-0.4,3-1.3,4.2c-0.8,1.2-1.9,2.2-3.3,3c0.7,0,1.5,0,2.4,0h10.6l-6.7-7c-0.6-0.7-0.9-1.7-0.9-2.8c0-1.4,0.5-2.6,1.4-3.6
			c1-1,2.1-1.5,3.5-1.5h9v5.7h-7.3c0,0.1,2.3,2.4,6.7,7c0.6,0.9,0.9,1.8,0.9,2.8c0,1.4-0.5,2.6-1.4,3.6c-1,1-2.1,1.5-3.5,1.5H277.6z
			 M271.6,234c0.4,0,0.7-0.1,1-0.4c0.3-0.3,0.4-0.6,0.4-1s-0.1-0.7-0.4-1c-0.3-0.3-0.6-0.4-1-0.4h-3.5v2.8H271.6z"/>
	</g>
</g>
</svg>
