<?xml version="1.0" encoding="utf-8"?>
<!-- Generator: Adobe Illustrator 25.4.1, SVG Export Plug-In . SVG Version: 6.00 Build 0)  -->
<svg version="1.1" id="Layer_1" xmlns="http://www.w3.org/2000/svg" xmlns:xlink="http://www.w3.org/1999/xlink" x="0px" y="0px"
	 viewBox="0 0 26 26" style="enable-background:new 0 0 26 26;" xml:space="preserve">
<style type="text/css">
	.st0{fill:none;stroke:#FCB245;stroke-width:1.2;stroke-linecap:round;stroke-linejoin:round;}
	.st1{fill:none;stroke:#FCB245;stroke-width:1.2;}
</style>
<path class="st0" d="M13,18.3c2.8,0,5-2.2,5-5s-2.2-5-5-5s-5,2.2-5,5S10.2,18.3,13,18.3z"/>
<path class="st0" d="M20.3,6.5c0,0.1-0.1,0.3-0.1,0.4C20.1,6.9,20,7,19.8,7s-0.3-0.1-0.4-0.1c-0.1-0.1-0.1-0.2-0.1-0.4"/>
<path class="st0" d="M19.3,6.5c0-0.1,0.1-0.3,0.1-0.4C19.6,6.1,19.7,6,19.8,6s0.3,0.1,0.4,0.1c0.1,0.1,0.1,0.2,0.1,0.4"/>
<path class="st1" d="M4,1h18c1.7,0,3,1.3,3,3v18c0,1.7-1.3,3-3,3H4c-1.7,0-3-1.3-3-3V4C1,2.3,2.3,1,4,1z"/>
</svg>
