<?xml version="1.0" encoding="utf-8"?>
<!-- Generator: Adobe Illustrator 25.4.1, SVG Export Plug-In . SVG Version: 6.00 Build 0)  -->
<svg version="1.1" id="Layer_1" xmlns="http://www.w3.org/2000/svg" xmlns:xlink="http://www.w3.org/1999/xlink" x="0px" y="0px"
	 viewBox="0 0 24 26" style="enable-background:new 0 0 24 26;" xml:space="preserve">
<style type="text/css">
	.st0{fill:#FCB245;}
</style>
<path class="st0" d="M12.3,10.8l-0.6,0l0,0L12.3,10.8z M11.7,1.6l0.6-0.1l0,0l0,0L11.7,1.6z M11.6,12.4l-0.2-0.6l0,0L11.6,12.4z
	 M10,11.5l0.5-0.3l0,0L10,11.5z M5,3.5L4.4,3.6l0,0.1l0,0.1L5,3.5z M5.2,2.7L4.8,2.2l0,0L5.2,2.7z M11,1l0.1-0.6l0,0L11,1z M20.8,13
	l0.3,0.5l0,0L20.8,13z M16.4,14.2l0.1,0.6l0,0L16.4,14.2z M21.1,12.3h-0.6v0l0,0L21.1,12.3z M21.1,12.3l-0.6-0.1l0,0l0,0L21.1,12.3z
	 M21.1,12.3l0.6,0.1l0,0l0,0L21.1,12.3z M21.1,12.2l-0.6,0.1l0,0l0,0L21.1,12.2z M18.4,8.2l0.3-0.5l0,0L18.4,8.2z M17.5,8.2l0.3,0.5
	l0,0L17.5,8.2z M15.1,11.5l0.5,0.4l0,0L15.1,11.5z M14.1,12.8l-0.4-0.4l0,0l0,0L14.1,12.8z M14.1,14l0.5-0.3l0,0L14.1,14z
	 M15.2,14.5L15,13.9l0,0l0,0L15.2,14.5z M3,16.5l-0.6,0.1l0,0L3,16.5z M3.5,12.6L3,12.2l0,0L3.5,12.6z M3.3,17.5l0.5-0.3l0,0
	L3.3,17.5z M4,17.9l0-0.6l0,0L4,17.9z M7.9,16.8l-0.2-0.6l0,0L7.9,16.8z M9.5,16.2l-0.1-0.6l-0.1,0l-0.1,0L9.5,16.2z M10.2,15.3
	l0.6,0l0,0L10.2,15.3z M9.6,14.2l-0.2,0.6l0,0l0,0L9.6,14.2z M8.5,13.8l-0.2,0.6l0.1,0h0.1V13.8z M4.2,12.1l0,0.6l0,0l0,0L4.2,12.1z
	 M12.2,20.4l-0.6,0v0L12.2,20.4z M12.1,24.5l0.6,0.2l0,0L12.1,24.5z M12.2,18.7l0.6,0l0,0L12.2,18.7z M11.5,17.7l-0.2,0.6l0,0
	L11.5,17.7z M10.3,18l0.5,0.4l0,0L10.3,18z M9.6,18.9v-0.6H9.3l-0.2,0.2L9.6,18.9z M6.7,22.5l0.6,0.2l0,0L6.7,22.5z M6.6,22.8
	l0.6-0.1l0,0L6.6,22.8z M6.8,23.3l-0.5,0.4l0,0L6.8,23.3z M11.4,25l0.1,0.6l0,0L11.4,25z M18.2,23.1L18,22.6l0,0L18.2,23.1z
	 M21.3,19.3l-0.6-0.1l0,0L21.3,19.3z M17.4,23l0.4-0.5l0,0L17.4,23z M14.9,19.2l-0.5,0.3l0,0L14.9,19.2z M14.3,18.2l0.5-0.3l0,0l0,0
	L14.3,18.2z M14.4,16.9l0.5,0.4l0,0L14.4,16.9z M15.5,16.6l0.3-0.5l0,0l0,0L15.5,16.6z M17.1,17.1l-0.2,0.6l0,0L17.1,17.1z M21,18.5
	l0.4-0.5l0,0l0,0L21,18.5z M12.9,10.8c0-0.8-0.2-3-0.3-5.1c-0.1-1-0.1-2-0.2-2.8c0-0.4-0.1-0.7-0.1-0.9c0-0.2,0-0.4,0-0.5l-1.2,0.2
	c0,0,0,0,0,0.1c0,0.1,0,0.2,0,0.3c0,0.2,0,0.5,0.1,0.9c0.1,0.7,0.1,1.7,0.2,2.8c0.1,2.1,0.3,4.3,0.3,5.1L12.9,10.8z M11.7,13
	c0.1,0,0.5-0.1,0.8-0.5c0.3-0.4,0.4-0.9,0.4-1.7l-1.2,0.1c0,0.6-0.1,0.9-0.1,0.9c0,0.1-0.1,0.1-0.1,0.1L11.7,13z M9.5,11.8
	c0.4,0.7,0.8,1,1.3,1.2c0.5,0.2,0.8,0.1,0.9,0l-0.4-1.1c-0.1,0-0.1,0-0.2,0c-0.1,0-0.3-0.2-0.7-0.7L9.5,11.8z M4.4,3.7
	c0,0.1,0.1,0.3,0.3,0.5c0.1,0.2,0.4,0.6,0.6,0.9C5.8,5.9,6.4,6.9,7,7.9c0.6,1,1.2,2,1.7,2.7C9,11,9.2,11.3,9.3,11.5
	c0.1,0.1,0.1,0.2,0.2,0.2c0,0,0,0.1,0,0.1c0,0,0,0,0,0c0,0,0,0,0,0c0,0,0,0,0,0c0,0,0,0,0,0c0,0,0,0,0.5-0.3
	c0.5-0.3,0.5-0.3,0.5-0.3c0,0,0,0,0,0c0,0,0,0,0,0c0,0,0,0,0,0c0,0,0,0,0,0c0,0,0,0,0-0.1c0-0.1-0.1-0.1-0.2-0.2
	c-0.1-0.2-0.3-0.5-0.6-0.9C9.3,9.2,8.7,8.3,8.1,7.3c-0.6-1-1.3-2-1.7-2.7C6.1,4.1,5.9,3.8,5.7,3.6C5.6,3.3,5.5,3.2,5.5,3.2L4.4,3.7z
	 M4.8,2.2C4.4,2.6,4.3,3.1,4.4,3.6l1.2-0.3c0,0,0-0.1,0.1-0.3L4.8,2.2z M11.1,0.5c-0.4-0.1-0.9-0.1-1.5,0C9.1,0.6,8.5,0.7,7.8,0.9
	C7.2,1.1,6.6,1.3,6.1,1.5C5.6,1.7,5.1,2,4.8,2.2l0.9,0.8C5.7,3,6,2.8,6.5,2.6C7,2.4,7.6,2.2,8.2,2c0.6-0.2,1.2-0.3,1.7-0.4
	c0.5-0.1,0.9-0.1,1,0L11.1,0.5z M12.2,1.5c-0.1-0.5-0.6-0.9-1.1-1l-0.3,1.2c0.2,0,0.2,0.1,0.2,0.2L12.2,1.5z M20.5,12.5
	C20.5,12.6,20.5,12.6,20.5,12.5C20.5,12.6,20.5,12.5,20.5,12.5C20.5,12.5,20.5,12.5,20.5,12.5C20.5,12.5,20.5,12.6,20.5,12.5
	c-0.1,0-0.3,0.1-0.6,0.2c-0.6,0.1-1.6,0.4-3.7,0.9l0.3,1.2c2-0.5,3.1-0.8,3.7-0.9c0.6-0.1,0.7-0.2,0.9-0.3L20.5,12.5z M20.5,12.3
	c0,0.2,0,0.2-0.1,0.2l0.7,1c0.5-0.3,0.6-0.8,0.6-1.3L20.5,12.3z M20.5,12.2C20.5,12.2,20.5,12.2,20.5,12.2l1.2,0c0,0,0,0,0,0
	c0,0,0,0,0,0L20.5,12.2z M20.6,12.2L20.6,12.2l1.2,0.1l0,0L20.6,12.2z M20.6,12.3C20.5,12.3,20.5,12.3,20.6,12.3c0-0.1,0-0.1,0-0.1
	l1.2,0.1c0,0,0,0,0,0c0,0,0-0.1,0-0.1L20.6,12.3z M18.2,8.7c0.1,0.1,0.3,0.2,0.6,0.5c0.3,0.3,0.6,0.7,0.8,1.1
	c0.3,0.4,0.5,0.8,0.7,1.2c0.2,0.4,0.3,0.7,0.3,0.8l1.2-0.1c0-0.4-0.2-0.8-0.4-1.2c-0.2-0.4-0.5-0.9-0.8-1.3
	c-0.3-0.4-0.6-0.9-0.9-1.2c-0.3-0.3-0.6-0.6-1-0.8L18.2,8.7z M17.9,8.7c0.1,0,0.1-0.1,0.3,0l0.5-1.1c-0.5-0.2-1-0.2-1.5,0.1
	L17.9,8.7z M15.6,11.8c1.1-1.5,1.7-2.3,2-2.7c0.2-0.2,0.2-0.3,0.3-0.4c0,0,0,0,0,0c0,0,0,0,0,0l-0.7-1C17,7.8,16.9,8,16.6,8.4
	c-0.3,0.4-0.9,1.2-2,2.7L15.6,11.8z M14.5,13.2C14.5,13.2,14.5,13.2,14.5,13.2C14.5,13.2,14.5,13.2,14.5,13.2
	C14.5,13.2,14.6,13.2,14.5,13.2C14.6,13.2,14.6,13.2,14.5,13.2C14.6,13.2,14.6,13.2,14.5,13.2c0.1-0.1,0.1-0.1,0.1-0.1
	c0,0,0.1-0.1,0.1-0.2c0.1-0.1,0.2-0.3,0.3-0.5c0.1-0.2,0.2-0.3,0.3-0.5c0-0.1,0.1-0.1,0.1-0.2c0,0,0,0,0,0c0,0,0,0,0,0c0,0,0,0,0,0
	c0,0,0,0,0,0c0,0,0,0,0,0l0,0c0,0,0,0-0.5-0.4c-0.5-0.4-0.5-0.4-0.5-0.4l0,0c0,0,0,0,0,0c0,0,0,0,0,0c0,0,0,0,0,0c0,0,0,0,0,0
	c0,0,0,0,0,0c0,0-0.1,0.1-0.1,0.2c-0.1,0.1-0.2,0.3-0.3,0.5c-0.1,0.2-0.2,0.3-0.3,0.5c0,0.1-0.1,0.1-0.1,0.2c0,0,0,0,0,0
	c0,0,0,0,0,0c0,0,0,0,0,0L14.5,13.2z M14.6,13.7c-0.1-0.2-0.1-0.4,0-0.5l-0.9-0.8c-0.5,0.6-0.4,1.3,0,1.9L14.6,13.7z M15,13.9
	c-0.1,0-0.3,0-0.5-0.2l-1,0.7c0.4,0.6,1.1,0.9,1.8,0.7L15,13.9z M16.2,13.6c-0.3,0.1-0.6,0.1-0.8,0.2c-0.1,0-0.2,0-0.3,0.1
	c0,0-0.1,0-0.1,0c0,0,0,0,0,0c0,0,0,0,0,0c0,0,0,0,0,0c0,0,0,0,0,0h0l0,0c0,0,0,0,0.1,0.6c0.1,0.6,0.1,0.6,0.1,0.6l0,0c0,0,0,0,0,0
	c0,0,0,0,0,0c0,0,0,0,0,0c0,0,0,0,0,0c0,0,0,0,0,0c0,0,0,0,0.1,0c0.1,0,0.1,0,0.3-0.1c0.2-0.1,0.5-0.1,0.8-0.2L16.2,13.6z M3.6,16.4
	c-0.1-0.6-0.1-1.4,0-2.1c0-0.3,0.1-0.7,0.1-0.9c0.1-0.3,0.1-0.4,0.2-0.5l-1-0.6c-0.2,0.2-0.3,0.6-0.3,0.9c-0.1,0.3-0.1,0.7-0.2,1.1
	c-0.1,0.8-0.1,1.6,0,2.3L3.6,16.4z M3.8,17.2c-0.1-0.1-0.1-0.4-0.2-0.8l-1.2,0.1c0,0.4,0.1,0.9,0.3,1.2L3.8,17.2z M4,17.3
	c-0.1,0-0.1,0-0.2-0.2l-1.1,0.6C3,18.2,3.4,18.5,4,18.5L4,17.3z M7.7,16.2c-1.8,0.6-2.7,0.9-3.2,1c-0.3,0.1-0.4,0.1-0.4,0.1
	c0,0,0,0,0,0c0,0,0,0,0,0L4,18.5c0.2,0,0.4,0,0.9-0.2c0.5-0.2,1.4-0.5,3.2-1L7.7,16.2z M9.3,15.7C9.3,15.7,9.3,15.7,9.3,15.7
	C9.3,15.7,9.3,15.7,9.3,15.7C9.3,15.7,9.3,15.7,9.3,15.7C9.3,15.7,9.3,15.7,9.3,15.7C9.3,15.7,9.3,15.7,9.3,15.7
	C9.3,15.7,9.3,15.7,9.3,15.7C9.3,15.7,9.3,15.7,9.3,15.7c0,0-0.1,0-0.2,0c-0.2,0-0.4,0.1-0.6,0.2C8.3,16,8.1,16.1,8,16.1
	c-0.1,0-0.1,0-0.2,0.1c0,0,0,0-0.1,0c0,0,0,0,0,0c0,0,0,0,0,0c0,0,0,0,0,0c0,0,0,0,0,0c0,0,0,0,0,0s0,0,0.2,0.6
	c0.2,0.6,0.2,0.6,0.2,0.6c0,0,0,0,0,0c0,0,0,0,0,0c0,0,0,0,0,0c0,0,0,0,0,0c0,0,0,0,0,0c0,0,0,0,0.1,0c0,0,0.1,0,0.2-0.1
	c0.2,0,0.4-0.1,0.6-0.2c0.2-0.1,0.4-0.1,0.6-0.2c0.1,0,0.1,0,0.2-0.1c0,0,0,0,0.1,0c0,0,0,0,0,0c0,0,0,0,0,0c0,0,0,0,0,0
	c0,0,0,0,0,0c0,0,0,0,0,0c0,0,0,0,0,0L9.3,15.7z M9.6,15.3c0,0.3-0.1,0.4-0.2,0.4l0.3,1.2c0.7-0.2,1.1-0.8,1.1-1.5L9.6,15.3z
	 M9.4,14.8c0.1,0,0.3,0.2,0.2,0.5l1.2,0.1c0-0.7-0.3-1.4-1-1.7L9.4,14.8z M8.5,14.4c-0.1,0-0.1,0-0.2,0c0,0,0,0,0,0c0,0,0,0,0,0
	c0,0,0,0,0,0c0,0,0,0,0,0c0,0,0,0,0,0c0,0,0,0,0,0C8.3,14.4,8.4,14.4,8.5,14.4c0.1,0.1,0.2,0.1,0.3,0.2c0.1,0.1,0.3,0.1,0.4,0.2
	c0.1,0,0.1,0,0.1,0.1c0,0,0,0,0,0c0,0,0,0,0,0c0,0,0,0,0,0c0,0,0,0,0,0c0,0,0,0,0,0c0,0,0,0,0,0c0,0,0,0,0.2-0.6s0.2-0.6,0.2-0.6
	c0,0,0,0,0,0c0,0,0,0,0,0c0,0,0,0,0,0c0,0,0,0,0,0c0,0,0,0,0,0c0,0,0,0,0,0c0,0-0.1,0-0.1-0.1c-0.1,0-0.2-0.1-0.4-0.2
	c-0.1-0.1-0.3-0.1-0.4-0.2c-0.1,0-0.1,0-0.1-0.1c0,0,0,0,0,0c0,0,0,0,0,0c0,0,0,0,0,0c0,0,0,0,0,0c0,0,0,0,0,0c0,0,0,0,0,0
	c0,0-0.1,0-0.2,0V14.4z M4.2,12.7C4.2,12.7,4.2,12.7,4.2,12.7C4.2,12.7,4.2,12.7,4.2,12.7c0.1,0,0.3,0.1,0.5,0.2
	c0.5,0.2,1.6,0.6,3.5,1.4l0.5-1.1c-1.9-0.8-3-1.2-3.5-1.4c-0.5-0.2-0.7-0.3-1-0.3L4.2,12.7z M4,12.9c0.1-0.1,0.2-0.2,0.2-0.2l0-1.2
	c-0.5,0-1,0.3-1.3,0.7L4,12.9z M11.6,20.4c0,1.9,0,2.9,0,3.4c0,0.3,0,0.4,0,0.5c0,0,0,0,0,0l1.1,0.4c0.1-0.2,0.1-0.4,0.1-0.9
	c0-0.5,0-1.5,0-3.4L11.6,20.4z M11.6,18.6c0,0,0,0.5,0,0.9c0,0.2,0,0.4,0,0.6c0,0.1,0,0.1,0,0.2c0,0,0,0,0,0.1c0,0,0,0,0,0
	c0,0,0,0,0,0c0,0,0,0,0,0c0,0,0,0,0,0c0,0,0,0,0,0s0,0,0.6,0s0.6,0,0.6,0l0,0c0,0,0,0,0,0c0,0,0,0,0,0c0,0,0,0,0,0c0,0,0,0,0,0
	c0,0,0,0,0-0.1c0,0,0-0.1,0-0.2c0-0.2,0-0.4,0-0.6c0-0.4,0-0.8,0-0.8L11.6,18.6z M11.3,18.3c0.2,0.1,0.3,0.2,0.3,0.4l1.2,0.1
	c0-0.7-0.4-1.3-1.1-1.5L11.3,18.3z M10.8,18.4c0.1-0.1,0.3-0.2,0.5-0.1l0.4-1.1c-0.7-0.3-1.4-0.1-1.9,0.5L10.8,18.4z M9.6,19.5
	c0.1,0,0.3-0.1,0.3-0.1c0,0,0,0,0.1,0c0,0,0,0,0,0c0,0,0,0,0,0c0,0,0,0,0,0c0,0,0,0,0,0c0,0,0,0,0,0c0,0,0.1-0.1,0.1-0.1
	c0.1-0.1,0.2-0.2,0.3-0.3s0.2-0.2,0.3-0.3c0,0,0.1-0.1,0.1-0.1c0,0,0,0,0,0c0,0,0,0,0,0c0,0,0,0,0,0c0,0,0,0,0,0c0,0,0,0,0,0
	c0,0,0,0,0,0c0,0,0,0-0.5-0.4c-0.5-0.4-0.5-0.4-0.5-0.4c0,0,0,0,0,0c0,0,0,0,0,0c0,0,0,0,0,0c0,0,0,0,0,0c0,0,0,0,0,0c0,0,0,0,0,0
	c0,0-0.1,0.1-0.1,0.1c-0.1,0.1-0.2,0.2-0.3,0.3c-0.1,0.1-0.2,0.2-0.3,0.3c0,0-0.1,0.1-0.1,0.1c0,0,0,0,0,0c0,0,0,0,0,0c0,0,0,0,0,0
	c0,0,0,0,0,0c0,0,0,0,0,0c0,0,0,0,0,0c0,0,0,0,0.1,0c0,0,0.2-0.1,0.3-0.1V19.5z M7.2,22.7C7.2,22.6,7.2,22.6,7.2,22.7
	C7.2,22.7,7.2,22.6,7.2,22.7c0.1-0.1,0.2-0.2,0.4-0.5c0.4-0.5,1.1-1.3,2.4-2.9l-0.9-0.8C7.7,20.1,7,21,6.6,21.4
	c-0.4,0.4-0.5,0.6-0.6,0.8L7.2,22.7z M7.2,22.7C7.2,22.7,7.2,22.7,7.2,22.7l-1.1-0.5C6,22.4,6,22.6,6,22.9L7.2,22.7z M7.3,22.9
	c-0.1-0.1-0.1-0.1-0.1-0.2L6,22.9c0,0.3,0.2,0.6,0.4,0.8L7.3,22.9z M11.3,24.4c-0.1,0-0.4,0-0.8-0.1c-0.4-0.1-0.9-0.2-1.3-0.4
	c-0.5-0.2-0.9-0.4-1.3-0.6c-0.4-0.2-0.6-0.4-0.7-0.5l-0.9,0.8c0.2,0.3,0.6,0.5,1,0.7c0.4,0.2,0.9,0.4,1.4,0.6c0.5,0.2,1,0.3,1.5,0.4
	c0.4,0.1,0.9,0.2,1.3,0.1L11.3,24.4z M11.6,24.2c0,0-0.1,0.1-0.2,0.1l0.2,1.2c0.5-0.1,0.9-0.4,1.1-0.9L11.6,24.2z M18.5,23.7
	c0.3-0.1,0.7-0.4,1-0.7c0.3-0.3,0.7-0.7,1-1.1c0.3-0.4,0.6-0.9,0.9-1.3c0.2-0.4,0.4-0.8,0.5-1.2l-1.2-0.2c0,0.1-0.1,0.4-0.3,0.7
	c-0.2,0.3-0.5,0.7-0.8,1.1c-0.3,0.4-0.6,0.7-0.9,1c-0.3,0.3-0.5,0.5-0.6,0.5L18.5,23.7z M17,23.5c0.4,0.3,1,0.4,1.5,0.2L18,22.6
	c-0.1,0.1-0.2,0-0.3,0L17,23.5z M14.4,19.5c1.1,1.7,1.6,2.7,2,3.2c0.3,0.5,0.4,0.7,0.6,0.8l0.7-0.9c0,0,0,0,0,0c0,0,0,0,0,0
	c0,0,0,0,0,0c0,0,0,0,0-0.1c-0.1-0.1-0.1-0.2-0.3-0.5c-0.3-0.5-0.9-1.4-2-3.2L14.4,19.5z M13.8,18.5l0.6,1l1-0.6l-0.6-1L13.8,18.5z
	 M13.9,16.6c-0.4,0.5-0.6,1.3-0.1,1.9l1-0.7c-0.1-0.1-0.1-0.3,0.1-0.5L13.9,16.6z M15.7,16c-0.7-0.3-1.4,0-1.8,0.5l0.9,0.8
	c0.2-0.2,0.3-0.2,0.4-0.2L15.7,16z M17.1,17.1c0.2-0.6,0.2-0.6,0.2-0.6l0,0c0,0,0,0,0,0c0,0,0,0,0,0c0,0,0,0,0,0c0,0,0,0,0,0
	c0,0,0,0-0.1,0c0,0-0.1,0-0.2-0.1c-0.1,0-0.3-0.1-0.5-0.2c-0.2-0.1-0.4-0.1-0.5-0.2c-0.1,0-0.1,0-0.2-0.1c0,0,0,0-0.1,0c0,0,0,0,0,0
	c0,0,0,0,0.1,0l-0.5,1.1c0,0,0,0,0,0c0,0,0,0,0,0c0,0,0,0,0,0c0,0,0,0,0,0c0,0,0,0,0.1,0c0,0,0.1,0,0.2,0.1c0.2,0.1,0.4,0.1,0.5,0.2
	c0.2,0.1,0.4,0.1,0.5,0.2c0.1,0,0.1,0,0.2,0.1c0,0,0,0,0.1,0c0,0,0,0,0,0c0,0,0,0,0,0c0,0,0,0,0,0c0,0,0,0,0,0l0,0
	C16.9,17.7,16.9,17.7,17.1,17.1z M21.3,18c-0.2-0.1-0.3-0.2-0.8-0.4c-0.5-0.2-1.4-0.5-3.2-1.1l-0.4,1.1c1.8,0.6,2.7,0.9,3.2,1.1
	c0.2,0.1,0.4,0.1,0.4,0.2c0,0,0,0,0,0L21.3,18z M21.9,19.4c0.1-0.5-0.1-1-0.5-1.4l-0.7,0.9c0,0,0.1,0.1,0.1,0.3L21.9,19.4z"/>
</svg>
